<svg viewBox="0 0 24 24" fill="none" xmlns="http://www.w3.org/2000/svg">
  <circle cx="12" cy="12" r="9" stroke="currentColor" stroke-width="2"/>
  <path d="M12 3C12 3 15 7 15 12C15 17 12 21 12 21" stroke="currentColor" stroke-width="2"/>
  <path d="M12 3C12 3 9 7 9 12C9 17 12 21 12 21" stroke="currentColor" stroke-width="2"/>
  <path d="M3 12H21" stroke="currentColor" stroke-width="2"/>
  <path d="M5.5 7.5C5.5 7.5 8 9 12 9C16 9 18.5 7.5 18.5 7.5" stroke="currentColor" stroke-width="2" stroke-linecap="round"/>
  <path d="M5.5 16.5C5.5 16.5 8 15 12 15C16 15 18.5 16.5 18.5 16.5" stroke="currentColor" stroke-width="2" stroke-linecap="round"/>
  <circle cx="12" cy="12" r="1.5" fill="currentColor"/>
</svg>

