<svg viewBox="0 0 24 24" fill="none" xmlns="http://www.w3.org/2000/svg">
  <path d="M12 21C12 21 5 16 5 10C5 7.23858 7.23858 5 10 5C11.1 5 12 5.5 12 5.5C12 5.5 12.9 5 14 5C16.7614 5 19 7.23858 19 10C19 16 12 21 12 21Z" stroke="currentColor" stroke-width="2" stroke-linecap="round" stroke-linejoin="round"/>
  <path d="M12 5.5V9" stroke="currentColor" stroke-width="2" stroke-linecap="round"/>
  <path d="M12 9C12 9 10 8 8.5 9.5" stroke="currentColor" stroke-width="2" stroke-linecap="round"/>
  <path d="M12 9C12 9 14 8 15.5 9.5" stroke="currentColor" stroke-width="2" stroke-linecap="round"/>
  <circle cx="12" cy="12" r="1.5" fill="currentColor"/>
</svg>

