<svg viewBox="0 0 24 24" fill="none" xmlns="http://www.w3.org/2000/svg">
  <path d="M9.75 17L9 20L8 21H16L15 20L14.25 17" stroke="currentColor" stroke-width="2" stroke-linecap="round" stroke-linejoin="round"/>
  <path d="M10 16.5C10 16.5 10.5 15 12 15C13.5 15 14 16.5 14 16.5" stroke="currentColor" stroke-width="2" stroke-linecap="round"/>
  <path d="M6.5 9C6.5 6.5 8.5 4 12 4C15.5 4 17.5 6.5 17.5 9C17.5 11 16.5 12.5 15 13.5C14 14.2 13.5 15 13.5 16H10.5C10.5 15 10 14.2 9 13.5C7.5 12.5 6.5 11 6.5 9Z" stroke="currentColor" stroke-width="2" stroke-linecap="round" stroke-linejoin="round"/>
  <circle cx="12" cy="9" r="1.5" fill="currentColor"/>
</svg>

